<svg width="355" height="92" viewBox="0 0 355 92" fill="none" xmlns="http://www.w3.org/2000/svg">
<mask id="path-1-inside-1" fill="white">
<rect width="92" height="92" rx="8"/>
</mask>
<rect width="92" height="92" rx="8" fill="#4F46E5" stroke="#4F46E5" stroke-width="22" mask="url(#path-1-inside-1)"/>
<path d="M17.5312 83V79.0625L22.625 78.1875V42.3438L17.5312 41.4688V37.5H33.875V41.4688L28.7812 42.3438V78.1875L33.875 79.0625V83H17.5312Z" fill="white"/>
<path d="M60.0938 58.6562C55.5312 58.6562 51.7188 57.6562 48.6562 55.6562C45.6146 53.6562 43.3229 50.9167 41.7812 47.4375C40.2604 43.9583 39.5 40.0104 39.5 35.5938V34.9375C39.5 30.4792 40.3021 26.5208 41.9062 23.0625C43.5104 19.5833 45.8125 16.8438 48.8125 14.8438C51.8125 12.8438 55.3958 11.8438 59.5625 11.8438C62.5 11.8438 65.1875 12.3021 67.625 13.2188C70.0625 14.1354 72.0833 15.3021 73.6875 16.7188V26.5312H68.7812L68.125 19.3438C66.0208 17.7396 63.1562 16.9375 59.5312 16.9375C56.5521 16.9375 54.0312 17.7083 51.9688 19.25C49.9062 20.7708 48.3438 22.875 47.2812 25.5625C46.2188 28.25 45.6875 31.3542 45.6875 34.875V35.5938C45.6875 41.3229 46.9479 45.7708 49.4688 48.9375C51.9896 52.0833 55.6042 53.6562 60.3125 53.6562C61.7708 53.6562 63.1979 53.4792 64.5938 53.125C65.9896 52.7708 67.1458 52.3125 68.0625 51.75L68.75 45.4062H73.5625V55.2812C71.8542 56.3438 69.8125 57.1771 67.4375 57.7812C65.0625 58.3646 62.6146 58.6562 60.0938 58.6562Z" fill="white"/>
<path d="M107.424 60V57.7852L110.289 57.293V37.1309L107.424 36.6387V34.4062H116.617V36.6387L113.752 37.1309V57.293L116.617 57.7852V60H107.424ZM119.359 60V57.7852L122.225 57.293V43.7051L119.359 43.2129V40.9805H125.318L125.564 43.8105C126.197 42.8027 126.988 42.0234 127.938 41.4727C128.898 40.9102 129.988 40.6289 131.207 40.6289C133.258 40.6289 134.846 41.2324 135.971 42.4395C137.096 43.6348 137.658 45.4863 137.658 47.9941V57.293L140.523 57.7852V60H131.33V57.7852L134.195 57.293V48.0645C134.195 46.3887 133.861 45.1992 133.193 44.4961C132.537 43.793 131.529 43.4414 130.17 43.4414C129.174 43.4414 128.289 43.6816 127.516 44.1621C126.754 44.6426 126.145 45.2988 125.688 46.1309V57.293L128.553 57.7852V60H119.359ZM150.684 60.3691C149.406 60.3691 148.211 60.2402 147.098 59.9824C145.984 59.7246 144.801 59.3262 143.547 58.7871L143.512 54.2695H146.131L146.781 56.9941C148.023 57.5098 149.324 57.7676 150.684 57.7676C152.09 57.7676 153.098 57.498 153.707 56.959C154.316 56.4199 154.621 55.752 154.621 54.9551C154.621 54.2051 154.311 53.5723 153.689 53.0566C153.08 52.5293 151.967 52.084 150.35 51.7207C148.053 51.1934 146.359 50.4902 145.27 49.6113C144.191 48.7207 143.652 47.5371 143.652 46.0605C143.652 45.0293 143.951 44.1094 144.549 43.3008C145.146 42.4805 145.979 41.8301 147.045 41.3496C148.111 40.8691 149.354 40.6289 150.771 40.6289C152.213 40.6289 153.443 40.793 154.463 41.1211C155.494 41.4492 156.391 41.8887 157.152 42.4395L157.328 46.7812H154.727L154.164 44.25C153.754 43.9453 153.268 43.7109 152.705 43.5469C152.143 43.3828 151.498 43.3008 150.771 43.3008C149.693 43.3008 148.814 43.5527 148.135 44.0566C147.467 44.5605 147.133 45.1934 147.133 45.9551C147.133 46.4004 147.227 46.7871 147.414 47.1152C147.613 47.4434 147.988 47.7422 148.539 48.0117C149.09 48.2695 149.898 48.5273 150.965 48.7852C153.613 49.4062 155.459 50.1973 156.502 51.1582C157.557 52.1191 158.084 53.3027 158.084 54.709C158.084 56.3145 157.486 57.6621 156.291 58.752C155.107 59.8301 153.238 60.3691 150.684 60.3691ZM167.664 60.2988C166.258 60.2988 165.139 59.8887 164.307 59.0684C163.486 58.2363 163.076 56.9121 163.076 55.0957V43.5469H160.07V40.9805H163.076V36.3926H166.539V40.9805H170.67V43.5469H166.539V55.0957C166.539 56.0098 166.721 56.6836 167.084 57.1172C167.447 57.5508 167.934 57.7676 168.543 57.7676C168.953 57.7676 169.41 57.7324 169.914 57.6621C170.418 57.5801 170.811 57.5098 171.092 57.4512L171.566 59.7188C171.062 59.8711 170.441 60.0059 169.703 60.123C168.977 60.2402 168.297 60.2988 167.664 60.2988ZM179.934 60.3691C177.953 60.3691 176.447 59.8887 175.416 58.9277C174.385 57.9551 173.869 56.5898 173.869 54.832C173.869 53.0273 174.607 51.5801 176.084 50.4902C177.561 49.3887 179.611 48.8379 182.236 48.8379H185.629V46.9746C185.629 45.8262 185.277 44.9355 184.574 44.3027C183.883 43.6699 182.904 43.3535 181.639 43.3535C180.842 43.3535 180.15 43.4531 179.564 43.6523C178.979 43.8398 178.445 44.1035 177.965 44.4434L177.596 47.0977H174.924V42.7383C176.646 41.332 178.902 40.6289 181.691 40.6289C184 40.6289 185.811 41.1797 187.123 42.2812C188.436 43.3828 189.092 44.959 189.092 47.0098V56.168C189.092 56.4141 189.092 56.6543 189.092 56.8887C189.104 57.123 189.121 57.3574 189.145 57.5918L190.99 57.7852V60H186.016C185.816 59.0391 185.693 58.166 185.646 57.3809C184.979 58.2363 184.141 58.9512 183.133 59.5254C182.137 60.0879 181.07 60.3691 179.934 60.3691ZM180.443 57.4688C181.592 57.4688 182.641 57.1934 183.59 56.6426C184.539 56.0918 185.219 55.4297 185.629 54.6562V51.2109H182.113C180.52 51.2109 179.324 51.5918 178.527 52.3535C177.73 53.1152 177.332 53.9648 177.332 54.9023C177.332 56.6133 178.369 57.4688 180.443 57.4688ZM195.086 50.543V47.8359H203.682V50.543H195.086ZM219.396 60.3691C216.83 60.3691 214.686 59.8066 212.963 58.6816C211.252 57.5566 209.963 56.0156 209.096 54.0586C208.24 52.1016 207.812 49.8809 207.812 47.3965V47.0273C207.812 44.5195 208.264 42.293 209.166 40.3477C210.068 38.3906 211.363 36.8496 213.051 35.7246C214.738 34.5996 216.754 34.0371 219.098 34.0371C220.75 34.0371 222.262 34.2949 223.633 34.8105C225.004 35.3262 226.141 35.9824 227.043 36.7793V42.2988H224.283L223.914 38.2559C222.73 37.3535 221.119 36.9023 219.08 36.9023C217.404 36.9023 215.986 37.3359 214.826 38.2031C213.666 39.0586 212.787 40.2422 212.189 41.7539C211.592 43.2656 211.293 45.0117 211.293 46.9922V47.3965C211.293 50.6191 212.002 53.1211 213.42 54.9023C214.838 56.6719 216.871 57.5566 219.52 57.5566C220.34 57.5566 221.143 57.457 221.928 57.2578C222.713 57.0586 223.363 56.8008 223.879 56.4844L224.266 52.916H226.973V58.4707C226.012 59.0684 224.863 59.5371 223.527 59.877C222.191 60.2051 220.814 60.3691 219.396 60.3691ZM238.979 60.3691C237.221 60.3691 235.703 59.959 234.426 59.1387C233.16 58.3066 232.182 57.1641 231.49 55.7109C230.799 54.2461 230.453 52.5762 230.453 50.7012V50.3145C230.453 48.4395 230.799 46.7754 231.49 45.3223C232.182 43.8574 233.16 42.709 234.426 41.877C235.703 41.0449 237.209 40.6289 238.943 40.6289C240.701 40.6289 242.213 41.0449 243.479 41.877C244.756 42.709 245.74 43.8516 246.432 45.3047C247.123 46.7578 247.469 48.4277 247.469 50.3145V50.7012C247.469 52.5879 247.123 54.2637 246.432 55.7285C245.74 57.1816 244.762 58.3184 243.496 59.1387C242.23 59.959 240.725 60.3691 238.979 60.3691ZM238.979 57.6621C240.619 57.6621 241.867 57.0059 242.723 55.6934C243.578 54.3809 244.006 52.7168 244.006 50.7012V50.3145C244.006 48.9785 243.812 47.7891 243.426 46.7461C243.051 45.6914 242.488 44.8652 241.738 44.2676C240.988 43.6582 240.057 43.3535 238.943 43.3535C237.842 43.3535 236.916 43.6582 236.166 44.2676C235.416 44.8652 234.854 45.6914 234.479 46.7461C234.104 47.7891 233.916 48.9785 233.916 50.3145V50.7012C233.916 52.7168 234.338 54.3809 235.182 55.6934C236.037 57.0059 237.303 57.6621 238.979 57.6621ZM250.141 60V57.7852L253.006 57.293V43.7051L250.141 43.2129V40.9805H256.1L256.346 43.8105C256.979 42.8027 257.77 42.0234 258.719 41.4727C259.68 40.9102 260.77 40.6289 261.988 40.6289C264.039 40.6289 265.627 41.2324 266.752 42.4395C267.877 43.6348 268.439 45.4863 268.439 47.9941V57.293L271.305 57.7852V60H262.111V57.7852L264.977 57.293V48.0645C264.977 46.3887 264.643 45.1992 263.975 44.4961C263.318 43.793 262.311 43.4414 260.951 43.4414C259.955 43.4414 259.07 43.6816 258.297 44.1621C257.535 44.6426 256.926 45.2988 256.469 46.1309V57.293L259.334 57.7852V60H250.141ZM279.777 60.2988C278.371 60.2988 277.252 59.8887 276.42 59.0684C275.6 58.2363 275.189 56.9121 275.189 55.0957V43.5469H272.184V40.9805H275.189V36.3926H278.652V40.9805H282.783V43.5469H278.652V55.0957C278.652 56.0098 278.834 56.6836 279.197 57.1172C279.561 57.5508 280.047 57.7676 280.656 57.7676C281.066 57.7676 281.523 57.7324 282.027 57.6621C282.531 57.5801 282.924 57.5098 283.205 57.4512L283.68 59.7188C283.176 59.8711 282.555 60.0059 281.816 60.123C281.09 60.2402 280.41 60.2988 279.777 60.2988ZM292.047 60.3691C290.066 60.3691 288.561 59.8887 287.529 58.9277C286.498 57.9551 285.982 56.5898 285.982 54.832C285.982 53.0273 286.721 51.5801 288.197 50.4902C289.674 49.3887 291.725 48.8379 294.35 48.8379H297.742V46.9746C297.742 45.8262 297.391 44.9355 296.688 44.3027C295.996 43.6699 295.018 43.3535 293.752 43.3535C292.955 43.3535 292.264 43.4531 291.678 43.6523C291.092 43.8398 290.559 44.1035 290.078 44.4434L289.709 47.0977H287.037V42.7383C288.76 41.332 291.016 40.6289 293.805 40.6289C296.113 40.6289 297.924 41.1797 299.236 42.2812C300.549 43.3828 301.205 44.959 301.205 47.0098V56.168C301.205 56.4141 301.205 56.6543 301.205 56.8887C301.217 57.123 301.234 57.3574 301.258 57.5918L303.104 57.7852V60H298.129C297.93 59.0391 297.807 58.166 297.76 57.3809C297.092 58.2363 296.254 58.9512 295.246 59.5254C294.25 60.0879 293.184 60.3691 292.047 60.3691ZM292.557 57.4688C293.705 57.4688 294.754 57.1934 295.703 56.6426C296.652 56.0918 297.332 55.4297 297.742 54.6562V51.2109H294.227C292.633 51.2109 291.438 51.5918 290.641 52.3535C289.844 53.1152 289.445 53.9648 289.445 54.9023C289.445 56.6133 290.482 57.4688 292.557 57.4688ZM314.389 60.3691C312.666 60.3691 311.166 59.9707 309.889 59.1738C308.611 58.3652 307.621 57.2461 306.918 55.8164C306.215 54.3867 305.863 52.7344 305.863 50.8594V50.1211C305.863 48.3164 306.203 46.6992 306.883 45.2695C307.562 43.8398 308.541 42.709 309.818 41.877C311.096 41.0449 312.619 40.6289 314.389 40.6289C315.924 40.6289 317.266 40.8809 318.414 41.3848C319.574 41.8887 320.547 42.5801 321.332 43.459L321.42 48.0293H318.713L318.115 44.707C317.717 44.2969 317.219 43.9688 316.621 43.7227C316.023 43.4766 315.32 43.3535 314.512 43.3535C313.48 43.3535 312.572 43.6582 311.787 44.2676C311.014 44.877 310.41 45.6914 309.977 46.7109C309.543 47.7305 309.326 48.8672 309.326 50.1211V50.8594C309.326 52.9453 309.777 54.6035 310.68 55.834C311.582 57.0527 312.812 57.6621 314.371 57.6621C315.543 57.6621 316.516 57.3398 317.289 56.6953C318.062 56.0508 318.537 55.166 318.713 54.041H321.824L321.859 54.1465C321.801 55.2363 321.479 56.2559 320.893 57.2051C320.307 58.1543 319.469 58.9219 318.379 59.5078C317.301 60.082 315.971 60.3691 314.389 60.3691ZM331.281 60.2988C329.875 60.2988 328.756 59.8887 327.924 59.0684C327.104 58.2363 326.693 56.9121 326.693 55.0957V43.5469H323.688V40.9805H326.693V36.3926H330.156V40.9805H334.287V43.5469H330.156V55.0957C330.156 56.0098 330.338 56.6836 330.701 57.1172C331.064 57.5508 331.551 57.7676 332.16 57.7676C332.57 57.7676 333.027 57.7324 333.531 57.6621C334.035 57.5801 334.428 57.5098 334.709 57.4512L335.184 59.7188C334.68 59.8711 334.059 60.0059 333.32 60.123C332.594 60.2402 331.914 60.2988 331.281 60.2988ZM345.098 60.3691C343.82 60.3691 342.625 60.2402 341.512 59.9824C340.398 59.7246 339.215 59.3262 337.961 58.7871L337.926 54.2695H340.545L341.195 56.9941C342.438 57.5098 343.738 57.7676 345.098 57.7676C346.504 57.7676 347.512 57.498 348.121 56.959C348.73 56.4199 349.035 55.752 349.035 54.9551C349.035 54.2051 348.725 53.5723 348.104 53.0566C347.494 52.5293 346.381 52.084 344.764 51.7207C342.467 51.1934 340.773 50.4902 339.684 49.6113C338.605 48.7207 338.066 47.5371 338.066 46.0605C338.066 45.0293 338.365 44.1094 338.963 43.3008C339.561 42.4805 340.393 41.8301 341.459 41.3496C342.525 40.8691 343.768 40.6289 345.186 40.6289C346.627 40.6289 347.857 40.793 348.877 41.1211C349.908 41.4492 350.805 41.8887 351.566 42.4395L351.742 46.7812H349.141L348.578 44.25C348.168 43.9453 347.682 43.7109 347.119 43.5469C346.557 43.3828 345.912 43.3008 345.186 43.3008C344.107 43.3008 343.229 43.5527 342.549 44.0566C341.881 44.5605 341.547 45.1934 341.547 45.9551C341.547 46.4004 341.641 46.7871 341.828 47.1152C342.027 47.4434 342.402 47.7422 342.953 48.0117C343.504 48.2695 344.312 48.5273 345.379 48.7852C348.027 49.4062 349.873 50.1973 350.916 51.1582C351.971 52.1191 352.498 53.3027 352.498 54.709C352.498 56.3145 351.9 57.6621 350.705 58.752C349.521 59.8301 347.652 60.3691 345.098 60.3691Z" fill="black"/>
</svg>
