<svg width="404" height="92" viewBox="0 0 404 92" fill="none" xmlns="http://www.w3.org/2000/svg">
<mask id="path-1-inside-1" fill="white">
<rect width="92" height="92" rx="8"/>
</mask>
<rect width="92" height="92" rx="8" fill="#7C3AEA" stroke="#7C3AEA" stroke-width="22" mask="url(#path-1-inside-1)"/>
<path d="M17.5312 83V79.0625L22.625 78.1875V42.3438L17.5312 41.4688V37.5H33.875V41.4688L28.7812 42.3438V78.1875L33.875 79.0625V83H17.5312Z" fill="white"/>
<path d="M60.0938 58.6562C55.5312 58.6562 51.7188 57.6562 48.6562 55.6562C45.6146 53.6562 43.3229 50.9167 41.7812 47.4375C40.2604 43.9583 39.5 40.0104 39.5 35.5938V34.9375C39.5 30.4792 40.3021 26.5208 41.9062 23.0625C43.5104 19.5833 45.8125 16.8438 48.8125 14.8438C51.8125 12.8438 55.3958 11.8438 59.5625 11.8438C62.5 11.8438 65.1875 12.3021 67.625 13.2188C70.0625 14.1354 72.0833 15.3021 73.6875 16.7188V26.5312H68.7812L68.125 19.3438C66.0208 17.7396 63.1562 16.9375 59.5312 16.9375C56.5521 16.9375 54.0312 17.7083 51.9688 19.25C49.9062 20.7708 48.3438 22.875 47.2812 25.5625C46.2188 28.25 45.6875 31.3542 45.6875 34.875V35.5938C45.6875 41.3229 46.9479 45.7708 49.4688 48.9375C51.9896 52.0833 55.6042 53.6562 60.3125 53.6562C61.7708 53.6562 63.1979 53.4792 64.5938 53.125C65.9896 52.7708 67.1458 52.3125 68.0625 51.75L68.75 45.4062H73.5625V55.2812C71.8542 56.3438 69.8125 57.1771 67.4375 57.7812C65.0625 58.3646 62.6146 58.6562 60.0938 58.6562Z" fill="white"/>
<path d="M114.224 28.152V22.328H120.624V28.152H114.224ZM114.864 67V35.896H120.048V67H114.864ZM129.483 52.088V47.8H147.403V52.088H129.483ZM177.088 67.576C172.651 67.576 168.853 66.6373 165.696 64.76C162.539 62.8827 160.107 60.216 158.4 56.76C156.736 53.304 155.904 49.1867 155.904 44.408C155.904 39.672 156.736 35.576 158.4 32.12C160.107 28.664 162.539 25.9973 165.696 24.12C168.853 22.2427 172.651 21.304 177.088 21.304C180.203 21.304 183.061 21.7947 185.664 22.776C188.309 23.7573 190.549 25.1867 192.384 27.064L190.336 31.352C188.373 29.5173 186.325 28.1947 184.192 27.384C182.101 26.5307 179.776 26.104 177.216 26.104C172.139 26.104 168.256 27.704 165.568 30.904C162.88 34.104 161.536 38.6053 161.536 44.408C161.536 50.2533 162.88 54.776 165.568 57.976C168.256 61.176 172.139 62.776 177.216 62.776C179.776 62.776 182.101 62.3707 184.192 61.56C186.325 60.7067 188.373 59.3627 190.336 57.528L192.384 61.816C190.549 63.6507 188.309 65.08 185.664 66.104C183.061 67.0853 180.203 67.576 177.088 67.576ZM210.605 67.576C207.575 67.576 204.951 66.9147 202.733 65.592C200.514 64.2693 198.786 62.4133 197.549 60.024C196.354 57.592 195.757 54.7333 195.757 51.448C195.757 48.1627 196.354 45.3253 197.549 42.936C198.786 40.504 200.514 38.6267 202.733 37.304C204.951 35.9813 207.575 35.32 210.605 35.32C213.591 35.32 216.194 35.9813 218.413 37.304C220.674 38.6267 222.402 40.504 223.597 42.936C224.834 45.3253 225.453 48.1627 225.453 51.448C225.453 54.7333 224.834 57.592 223.597 60.024C222.402 62.4133 220.674 64.2693 218.413 65.592C216.194 66.9147 213.591 67.576 210.605 67.576ZM210.605 63.416C213.506 63.416 215.831 62.392 217.581 60.344C219.33 58.2533 220.205 55.288 220.205 51.448C220.205 47.5653 219.33 44.6 217.581 42.552C215.831 40.504 213.506 39.48 210.605 39.48C207.661 39.48 205.314 40.504 203.565 42.552C201.858 44.6 201.005 47.5653 201.005 51.448C201.005 55.288 201.858 58.2533 203.565 60.344C205.314 62.392 207.661 63.416 210.605 63.416ZM233.239 67V35.896H238.295V41.208C239.319 39.2453 240.77 37.7733 242.647 36.792C244.524 35.8107 246.636 35.32 248.983 35.32C256.364 35.32 260.055 39.416 260.055 47.608V67H254.871V47.928C254.871 45.0267 254.295 42.9147 253.143 41.592C252.034 40.2267 250.242 39.544 247.767 39.544C244.908 39.544 242.626 40.44 240.919 42.232C239.255 43.9813 238.423 46.328 238.423 49.272V67H233.239ZM282.094 67.576C278.425 67.576 275.673 66.616 273.838 64.696C272.003 62.7333 271.086 59.9173 271.086 56.248V39.928H265.006V35.896H271.086V26.36H276.27V35.896H286.126V39.928H276.27V55.736C276.27 58.168 276.782 60.024 277.806 61.304C278.83 62.5413 280.494 63.16 282.798 63.16C283.481 63.16 284.163 63.0747 284.846 62.904C285.529 62.7333 286.147 62.5627 286.702 62.392L287.598 66.36C287.043 66.6587 286.233 66.936 285.166 67.192C284.099 67.448 283.075 67.576 282.094 67.576ZM301.781 67.576C299.648 67.576 297.728 67.1707 296.021 66.36C294.357 65.5067 293.034 64.3547 292.053 62.904C291.072 61.4533 290.581 59.832 290.581 58.04C290.581 55.7787 291.157 53.9867 292.309 52.664C293.504 51.3413 295.445 50.4027 298.133 49.848C300.864 49.2507 304.576 48.952 309.269 48.952H311.317V46.968C311.317 44.3227 310.762 42.424 309.653 41.272C308.586 40.0773 306.858 39.48 304.469 39.48C302.592 39.48 300.778 39.7573 299.029 40.312C297.28 40.824 295.488 41.6773 293.653 42.872L291.861 39.096C293.482 37.944 295.445 37.0267 297.749 36.344C300.096 35.6613 302.336 35.32 304.469 35.32C308.48 35.32 311.445 36.3013 313.365 38.264C315.328 40.2267 316.309 43.2773 316.309 47.416V67H311.445V61.624C310.634 63.4587 309.376 64.9093 307.669 65.976C306.005 67.0427 304.042 67.576 301.781 67.576ZM302.613 63.672C305.173 63.672 307.264 62.7973 308.885 61.048C310.506 59.256 311.317 56.9947 311.317 54.264V52.344H309.333C305.877 52.344 303.146 52.5147 301.141 52.856C299.178 53.1547 297.792 53.7093 296.981 54.52C296.213 55.288 295.829 56.3547 295.829 57.72C295.829 59.4693 296.426 60.8987 297.621 62.008C298.858 63.1173 300.522 63.672 302.613 63.672ZM339.111 67.576C335.996 67.576 333.308 66.9147 331.047 65.592C328.785 64.2267 327.036 62.328 325.799 59.896C324.604 57.4213 324.007 54.5413 324.007 51.256C324.007 46.3067 325.351 42.424 328.039 39.608C330.727 36.7493 334.417 35.32 339.111 35.32C341.031 35.32 342.929 35.6613 344.807 36.344C346.684 37.0267 348.241 37.9867 349.479 39.224L347.687 43C346.449 41.8053 345.084 40.9307 343.591 40.376C342.14 39.8213 340.753 39.544 339.431 39.544C336.188 39.544 333.692 40.568 331.943 42.616C330.193 44.6213 329.319 47.5227 329.319 51.32C329.319 55.032 330.193 57.976 331.943 60.152C333.692 62.2853 336.188 63.352 339.431 63.352C340.753 63.352 342.14 63.0747 343.591 62.52C345.084 61.9653 346.449 61.0693 347.687 59.832L349.479 63.608C348.241 64.8453 346.663 65.8267 344.743 66.552C342.865 67.2347 340.988 67.576 339.111 67.576ZM368.032 67.576C364.362 67.576 361.61 66.616 359.776 64.696C357.941 62.7333 357.024 59.9173 357.024 56.248V39.928H350.944V35.896H357.024V26.36H362.208V35.896H372.064V39.928H362.208V55.736C362.208 58.168 362.72 60.024 363.744 61.304C364.768 62.5413 366.432 63.16 368.736 63.16C369.418 63.16 370.101 63.0747 370.784 62.904C371.466 62.7333 372.085 62.5627 372.64 62.392L373.536 66.36C372.981 66.6587 372.17 66.936 371.104 67.192C370.037 67.448 369.013 67.576 368.032 67.576ZM388.423 67.576C385.991 67.576 383.687 67.2347 381.51 66.552C379.334 65.8693 377.543 64.9093 376.135 63.672L377.799 60.024C379.335 61.2613 381.02 62.1787 382.855 62.776C384.732 63.3307 386.631 63.608 388.551 63.608C390.983 63.608 392.817 63.16 394.055 62.264C395.292 61.368 395.911 60.152 395.911 58.616C395.911 57.4213 395.505 56.4827 394.695 55.8C393.884 55.0747 392.604 54.52 390.855 54.136L385.031 52.856C379.74 51.704 377.095 48.9733 377.095 44.664C377.095 41.848 378.204 39.5867 380.423 37.88C382.684 36.1733 385.628 35.32 389.255 35.32C391.388 35.32 393.415 35.6613 395.335 36.344C397.297 36.984 398.919 37.944 400.199 39.224L398.471 42.872C397.233 41.72 395.783 40.8453 394.119 40.248C392.497 39.608 390.876 39.288 389.255 39.288C386.865 39.288 385.052 39.7573 383.815 40.696C382.577 41.6347 381.959 42.872 381.959 44.408C381.959 46.7973 383.537 48.3333 386.695 49.016L392.519 50.232C395.249 50.8293 397.319 51.7893 398.727 53.112C400.135 54.392 400.839 56.1413 400.839 58.36C400.839 61.2187 399.708 63.48 397.447 65.144C395.185 66.7653 392.177 67.576 388.423 67.576Z" fill="black"/>
</svg>
