<svg width="92" height="92" viewBox="0 0 92 92" fill="none" xmlns="http://www.w3.org/2000/svg">
<mask id="path-1-inside-1" fill="white">
<rect width="92" height="92" rx="8"/>
</mask>
<rect width="92" height="92" rx="8" fill="#4F46E5" stroke="#4F46E5" stroke-width="22" mask="url(#path-1-inside-1)"/>
<path d="M17.5312 83V79.0625L22.625 78.1875V42.3438L17.5312 41.4688V37.5H33.875V41.4688L28.7812 42.3438V78.1875L33.875 79.0625V83H17.5312Z" fill="white"/>
<path d="M60.0938 58.6562C55.5312 58.6562 51.7188 57.6562 48.6562 55.6562C45.6146 53.6562 43.3229 50.9167 41.7812 47.4375C40.2604 43.9583 39.5 40.0104 39.5 35.5938V34.9375C39.5 30.4792 40.3021 26.5208 41.9062 23.0625C43.5104 19.5833 45.8125 16.8438 48.8125 14.8438C51.8125 12.8438 55.3958 11.8438 59.5625 11.8438C62.5 11.8438 65.1875 12.3021 67.625 13.2188C70.0625 14.1354 72.0833 15.3021 73.6875 16.7188V26.5312H68.7812L68.125 19.3438C66.0208 17.7396 63.1562 16.9375 59.5312 16.9375C56.5521 16.9375 54.0312 17.7083 51.9688 19.25C49.9062 20.7708 48.3438 22.875 47.2812 25.5625C46.2188 28.25 45.6875 31.3542 45.6875 34.875V35.5938C45.6875 41.3229 46.9479 45.7708 49.4688 48.9375C51.9896 52.0833 55.6042 53.6562 60.3125 53.6562C61.7708 53.6562 63.1979 53.4792 64.5938 53.125C65.9896 52.7708 67.1458 52.3125 68.0625 51.75L68.75 45.4062H73.5625V55.2812C71.8542 56.3438 69.8125 57.1771 67.4375 57.7812C65.0625 58.3646 62.6146 58.6562 60.0938 58.6562Z" fill="white"/>
</svg>
